<svg width="2656" height="728" viewBox="0 0 2656 728" fill="none" xmlns="http://www.w3.org/2000/svg">
<path d="M1094.83 679.038C1061.05 679.038 1034.13 670.33 1014.08 652.914C994.551 634.97 984.787 610.693 984.787 580.083C984.787 556.334 990.065 537.07 1000.62 522.293C1011.7 506.988 1025.69 494.586 1042.58 485.086C1059.99 475.586 1078.47 467.67 1097.99 461.337C1117.52 454.476 1135.73 448.142 1152.62 442.337C1170.03 436.004 1184.28 428.615 1195.36 420.171C1206.45 411.727 1211.99 400.908 1211.99 387.714V349.715C1211.99 326.493 1206.45 308.813 1195.36 296.675C1184.81 284.536 1169.5 278.467 1149.45 278.467C1134.67 278.467 1122.8 280.842 1113.83 285.592C1104.85 289.814 1100.37 296.147 1100.37 304.591C1100.37 311.98 1102.74 319.105 1107.49 325.966C1112.24 332.827 1116.99 340.215 1121.74 348.132C1126.49 355.52 1128.87 363.965 1128.87 373.464C1128.87 386.658 1123.06 397.214 1111.45 405.13C1100.37 413.046 1085.85 417.005 1067.91 417.005C1047.85 417.005 1031.76 411.463 1019.62 400.38C1008.01 389.297 1002.2 373.992 1002.2 354.465C1002.2 332.299 1009.86 313.299 1025.16 297.467C1040.99 281.106 1063.16 268.44 1091.66 259.468C1120.16 250.496 1153.41 246.01 1191.41 246.01C1230.46 246.01 1261.86 251.024 1285.61 261.051C1309.36 270.551 1326.78 286.647 1337.86 309.341C1348.94 331.507 1354.48 362.117 1354.48 401.172V600.666C1354.48 612.276 1356.07 620.457 1359.23 625.206C1362.4 629.956 1367.68 632.331 1375.07 632.331C1380.34 632.331 1385.62 631.276 1390.9 629.165C1396.18 627.054 1402.25 624.151 1409.11 620.457L1420.19 645.789C1406.47 656.872 1389.58 665.052 1369.53 670.33C1350 676.135 1328.1 679.038 1303.82 679.038C1245.24 679.038 1214.89 658.983 1212.78 618.873C1198.53 638.928 1181.64 653.97 1162.12 663.997C1142.59 674.024 1120.16 679.038 1094.83 679.038ZM1166.87 610.165C1175.84 610.165 1184.02 608.582 1191.41 605.415C1199.32 601.721 1206.18 595.916 1211.99 587.999V433.629C1208.29 441.545 1203.02 448.67 1196.16 455.003C1189.3 461.337 1181.64 467.67 1173.2 474.003C1164.75 479.808 1156.57 486.405 1148.66 493.794C1141.27 500.655 1134.94 509.099 1129.66 519.126C1124.91 529.154 1122.53 541.556 1122.53 556.334C1122.53 573.222 1126.23 586.416 1133.62 595.916C1141.53 605.415 1152.62 610.165 1166.87 610.165Z" fill="#FFFFFA"/>
<path d="M794.223 676.663V158.137C794.223 133.332 789.473 115.652 779.974 105.097C771.002 94.542 755.433 89.0005 733.267 88.4728V57.5987C745.933 58.1264 757.544 58.6542 768.099 59.182C778.654 59.7097 790.265 59.9736 802.931 59.9736C827.736 59.9736 851.485 59.182 874.179 57.5987C897.401 55.4876 918.247 52.585 936.719 48.8906V567.416C936.719 591.693 941.205 609.373 950.177 620.456C959.677 631.012 975.773 636.553 998.467 637.081V667.955C985.801 666.899 974.19 666.372 963.635 666.372C953.079 665.844 941.205 665.58 928.011 665.58C903.206 665.58 879.457 666.372 856.763 667.955C834.069 670.066 813.223 672.969 794.223 676.663ZM682.602 679.038C648.825 679.038 619.27 670.594 593.938 653.705C569.133 636.289 549.87 611.748 536.148 580.083C522.954 547.889 516.357 509.89 516.357 466.086C516.357 419.115 523.745 379.533 538.523 347.34C553.3 314.619 574.674 289.55 602.646 272.134C631.145 254.718 665.186 246.01 704.768 246.01C729.045 246.01 750.419 249.44 768.891 256.301C787.362 262.634 801.876 271.87 812.431 284.008L806.889 312.508C801.084 305.119 793.168 299.314 783.14 295.091C773.113 290.869 762.294 288.758 750.683 288.758C721.656 288.758 700.018 302.744 685.768 330.715C671.519 358.687 664.394 402.227 664.394 461.336C664.394 515.696 670.199 556.597 681.81 584.041C693.421 611.484 711.629 625.206 736.433 625.206C749.1 625.206 760.974 621.512 772.057 614.123C783.14 606.207 792.112 595.124 798.973 580.874L802.14 609.373C791.584 631.539 776.279 648.692 756.224 660.83C736.169 672.969 711.629 679.038 682.602 679.038Z" fill="#FFFFFA"/>
<path d="M0 667.955V637.081C22.166 636.025 38.5266 633.914 49.0818 630.747C59.6371 627.581 66.498 621.248 69.6646 611.748C73.3589 602.248 75.2061 587.999 75.2061 568.999V206.427C75.2061 187.428 73.3589 173.442 69.6646 164.47C66.498 154.97 59.3732 148.373 48.2902 144.679C37.735 140.985 21.6382 138.874 0 138.346V107.472C29.0269 107.999 66.7619 108.527 113.205 109.055C160.176 109.583 214.799 109.847 277.075 109.847C304.519 109.847 329.587 109.847 352.281 109.847C374.975 109.319 395.557 109.055 414.029 109.055C432.501 108.527 449.125 107.999 463.903 107.472C464.43 140.193 465.75 172.386 467.861 204.052C469.972 235.19 473.138 266.328 477.36 297.466H445.695C437.778 262.106 427.223 232.815 414.029 209.594C400.835 186.372 384.738 169.22 365.739 158.137C346.739 146.526 324.837 140.721 300.033 140.721H235.909V584.832C235.909 599.082 236.965 609.901 239.076 617.289C241.187 624.15 245.673 628.9 252.534 631.539C259.395 633.65 269.158 634.706 281.825 634.706H290.533C316.921 634.706 341.726 627.581 364.947 613.331C388.169 599.082 409.279 577.971 428.279 550C447.806 521.501 464.694 486.932 478.944 446.295H511.401C507.707 489.043 504.804 528.625 502.693 565.041C501.11 600.929 500.846 635.233 501.901 667.955C474.458 666.899 442 666.371 404.529 666.371C367.058 665.844 322.199 665.58 269.95 665.58C209.258 665.58 155.954 665.844 110.038 666.371C64.6508 666.371 27.9714 666.899 0 667.955ZM210.577 401.171V371.089H358.614V401.171H210.577ZM360.989 505.668C358.35 482.974 352.809 463.975 344.365 448.67C335.92 432.837 324.837 420.962 311.116 413.046C297.922 405.129 281.825 401.171 262.825 401.171V371.089C287.63 371.089 308.477 361.853 325.365 343.381C342.781 324.382 353.864 298.785 358.614 266.592H390.28C388.169 297.202 387.113 321.215 387.113 338.631C387.113 355.52 387.113 371.353 387.113 386.13C387.113 396.685 387.377 407.504 387.905 418.587C388.433 429.142 388.96 441.545 389.488 455.794C390.544 469.516 391.599 486.141 392.655 505.668H360.989Z" fill="#FFFFFA"/>
<path d="M2406.83 584.616V555.608C2428.65 555.112 2443.77 551.146 2452.2 543.708C2460.63 536.27 2464.85 522.386 2464.85 502.056V293.052C2464.85 271.234 2460.63 255.119 2452.2 244.706C2444.27 233.797 2429.15 228.094 2406.83 227.599V198.591C2417.24 199.087 2427.41 199.583 2437.33 200.078C2447.74 200.574 2457.9 200.822 2467.82 200.822C2492.61 200.822 2515.92 200.079 2537.74 198.591C2559.56 196.608 2579.89 193.88 2598.73 190.409V502.056C2598.73 522.882 2602.94 537.014 2611.37 544.452C2620.3 551.394 2635.17 555.112 2656 555.608V584.616C2648.07 584.12 2637.65 583.872 2624.76 583.872C2611.87 583.376 2597.49 582.88 2581.62 582.385C2566.25 581.889 2550.38 581.641 2534.02 581.641C2510.71 581.641 2486.66 582.137 2461.87 583.128C2437.57 583.624 2419.23 584.12 2406.83 584.616ZM2528.07 133.882C2509.23 133.882 2492.12 128.427 2476.75 117.518C2461.38 106.114 2453.69 89.2543 2453.69 66.9407C2453.69 44.6272 2461.38 28.016 2476.75 17.1071C2492.12 5.70235 2509.23 0 2528.07 0C2546.91 0 2564.02 5.70235 2579.39 17.1071C2594.76 28.016 2602.45 44.6272 2602.45 66.9407C2602.45 89.2543 2594.51 106.114 2578.65 117.518C2563.27 128.427 2546.42 133.882 2528.07 133.882Z" fill="#FFFFFA"/>
<path d="M2089.84 595.029C2058.11 595.029 2032.82 586.847 2013.98 570.484C1995.63 553.625 1986.46 530.815 1986.46 502.055C1986.46 479.742 1991.42 461.643 2001.33 447.759C2011.75 433.379 2024.89 421.727 2040.75 412.801C2057.12 403.876 2074.47 396.438 2092.82 390.488C2111.17 384.041 2128.27 378.091 2144.14 372.637C2160.5 366.686 2173.89 359.744 2184.31 351.811C2194.72 343.877 2199.92 333.712 2199.92 321.315V285.614C2199.92 263.796 2194.72 247.185 2184.31 235.78C2174.39 224.375 2160.01 218.673 2141.17 218.673C2127.28 218.673 2116.13 220.904 2107.7 225.367C2099.27 229.334 2095.05 235.284 2095.05 243.218C2095.05 250.16 2097.28 256.854 2101.75 263.3C2106.21 269.746 2110.67 276.688 2115.13 284.126C2119.6 291.068 2121.83 299.002 2121.83 307.927C2121.83 320.324 2116.37 330.241 2105.46 337.679C2095.05 345.117 2081.42 348.836 2064.56 348.836C2045.71 348.836 2030.59 343.629 2019.18 333.216C2008.28 322.803 2002.82 308.423 2002.82 290.076C2002.82 269.25 2010.01 251.4 2024.39 236.524C2039.27 221.152 2060.09 209.252 2086.87 200.822C2113.65 192.393 2144.88 188.178 2180.59 188.178C2217.28 188.178 2246.78 192.888 2269.1 202.31C2291.41 211.235 2307.77 226.359 2318.19 247.681C2328.6 268.507 2333.81 297.266 2333.81 333.96V521.394C2333.81 532.303 2335.29 539.989 2338.27 544.451C2341.24 548.914 2346.2 551.145 2353.14 551.145C2358.1 551.145 2363.06 550.154 2368.02 548.17C2372.98 546.187 2378.68 543.46 2385.13 539.989L2395.54 563.79C2382.65 574.203 2366.78 581.889 2347.94 586.847C2329.59 592.302 2309.01 595.029 2286.2 595.029C2231.16 595.029 2202.65 576.186 2200.67 538.501C2187.28 557.344 2171.41 571.476 2153.07 580.897C2134.72 590.318 2113.65 595.029 2089.84 595.029ZM2157.53 530.319C2165.96 530.319 2173.64 528.832 2180.59 525.857C2188.02 522.386 2194.47 516.931 2199.92 509.493V364.455C2196.45 371.893 2191.5 378.587 2185.05 384.537C2178.6 390.488 2171.41 396.438 2163.48 402.388C2155.55 407.843 2147.86 414.041 2140.42 420.983C2133.48 427.429 2127.53 435.363 2122.57 444.784C2118.11 454.205 2115.88 465.858 2115.88 479.742C2115.88 495.609 2119.35 508.006 2126.29 516.931C2133.73 525.857 2144.14 530.319 2157.53 530.319Z" fill="#FFFFFA"/>
<path d="M1503.53 727.928C1484.19 727.928 1468.82 722.722 1457.42 712.309C1446.01 702.392 1440.31 689.004 1440.31 672.144C1440.31 654.294 1446.51 638.922 1458.9 626.03C1471.8 613.633 1489.65 603.964 1512.46 597.022C1535.27 590.08 1561.79 586.609 1592.04 586.609C1616.34 586.609 1640.88 588.593 1665.68 592.559C1690.47 596.526 1715.26 600.989 1740.05 605.948C1764.85 611.402 1789.64 616.113 1814.43 620.079C1839.72 624.046 1864.76 626.03 1889.56 626.03C1924.27 626.03 1951.79 621.319 1972.12 611.898C1992.94 602.972 2010.79 587.601 2025.67 565.783L2048.73 578.427C2032.86 628.509 2010.79 665.946 1982.53 690.739C1954.76 715.532 1920.3 727.928 1879.14 727.928C1853.85 727.928 1830.3 724.21 1808.48 716.772C1787.16 709.334 1767.08 699.912 1748.24 688.508C1729.39 677.103 1711.05 665.698 1693.2 654.294C1675.84 642.889 1658.49 633.468 1641.13 626.03C1623.78 618.592 1605.92 614.873 1587.58 614.873C1571.21 614.873 1558.82 616.608 1550.39 620.079C1542.45 624.046 1538.49 629.253 1538.49 635.699C1538.49 640.658 1540.22 645.616 1543.69 650.575C1547.17 656.029 1550.64 661.732 1554.11 667.682C1557.58 673.632 1559.31 680.078 1559.31 687.02C1559.31 698.921 1553.86 708.59 1542.95 716.028C1532.54 723.962 1519.4 727.928 1503.53 727.928ZM1611.38 595.534L1571.21 590.328C1589.07 586.857 1604.93 582.394 1618.82 576.94C1632.7 571.981 1646.34 566.527 1659.73 560.577C1673.11 554.626 1687.49 549.172 1702.86 544.213C1718.24 538.759 1736.09 534.792 1756.42 532.313L1757.16 552.395C1737.33 555.866 1719.97 560.081 1705.1 565.039C1690.22 569.998 1675.59 574.956 1661.21 579.915C1647.33 584.874 1630.72 590.08 1611.38 595.534ZM1685.76 560.577C1626.75 560.577 1575.18 548.924 1531.05 525.619C1486.92 502.313 1452.46 470.083 1427.66 428.926C1403.37 387.77 1391.22 340.416 1391.22 286.863C1391.22 233.311 1403.37 185.956 1427.66 144.8C1452.46 103.644 1486.92 71.4131 1531.05 48.1078C1575.68 24.8026 1627.25 13.1499 1685.76 13.1499C1744.27 13.1499 1795.59 24.8026 1839.72 48.1078C1883.85 71.4131 1918.07 103.644 1942.36 144.8C1967.16 185.956 1979.55 233.311 1979.55 286.863C1979.55 340.416 1967.16 387.77 1942.36 428.926C1918.07 470.083 1883.85 502.313 1839.72 525.619C1795.59 548.924 1744.27 560.577 1685.76 560.577ZM1685.76 533.056C1711.54 533.056 1734.85 523.139 1755.67 503.305C1776.5 482.975 1792.86 454.463 1804.76 417.77C1817.16 380.58 1823.36 336.945 1823.36 286.863C1823.36 236.286 1817.16 192.65 1804.76 155.957C1792.37 119.263 1775.51 90.9995 1754.19 71.1652C1733.36 50.8351 1710.3 40.67 1685.01 40.67C1659.73 40.67 1636.67 50.8351 1615.84 71.1652C1595.02 90.9995 1578.4 119.511 1566.01 156.701C1553.61 193.394 1547.41 236.782 1547.41 286.863C1547.41 336.945 1553.61 380.58 1566.01 417.77C1578.9 454.463 1595.76 482.975 1616.59 503.305C1637.41 523.139 1660.47 533.056 1685.76 533.056Z" fill="#FFFFFA"/>
</svg>
