<svg width="2813" height="771" viewBox="0 0 2813 771" fill="none" xmlns="http://www.w3.org/2000/svg">
<path d="M1159.41 719.092C1123.64 719.092 1095.13 709.87 1073.89 691.427C1053.22 672.424 1042.88 646.715 1042.88 614.3C1042.88 589.149 1048.46 568.75 1059.64 553.101C1071.38 536.893 1086.19 523.759 1104.07 513.699C1122.52 503.639 1142.08 495.256 1162.76 488.549C1183.44 481.283 1202.72 474.577 1220.6 468.429C1239.05 461.722 1254.14 453.898 1265.87 444.955C1277.61 436.013 1283.48 424.556 1283.48 410.583V370.343C1283.48 345.752 1277.61 327.029 1265.87 314.175C1254.7 301.32 1238.49 294.893 1217.25 294.893C1201.6 294.893 1189.03 297.408 1179.53 302.438C1170.02 306.909 1165.27 313.616 1165.27 322.558C1165.27 330.382 1167.79 337.928 1172.82 345.193C1177.85 352.459 1182.88 360.283 1187.91 368.667C1192.94 376.491 1195.45 385.433 1195.45 395.493C1195.45 409.466 1189.31 420.644 1177.01 429.027C1165.27 437.41 1149.9 441.602 1130.9 441.602C1109.66 441.602 1092.62 435.734 1079.76 423.997C1067.47 412.26 1061.32 396.052 1061.32 375.373C1061.32 351.9 1069.42 331.78 1085.63 315.013C1102.4 297.687 1125.87 284.274 1156.05 274.773C1186.23 265.272 1221.44 260.521 1261.68 260.521C1303.04 260.521 1336.29 265.83 1361.44 276.449C1386.59 286.509 1405.04 303.556 1416.77 327.588C1428.51 351.062 1434.38 383.477 1434.38 424.835V636.096C1434.38 648.392 1436.06 657.055 1439.41 662.085C1442.76 667.115 1448.35 669.63 1456.18 669.63C1461.77 669.63 1467.35 668.512 1472.94 666.277C1478.53 664.041 1484.96 660.967 1492.23 657.055L1503.96 683.882C1489.43 695.618 1471.55 704.281 1450.31 709.87C1429.63 716.018 1406.44 719.092 1380.73 719.092C1318.69 719.092 1286.55 697.854 1284.32 655.378C1269.23 676.616 1251.34 692.545 1230.66 703.164C1209.98 713.782 1186.23 719.092 1159.41 719.092ZM1235.69 646.157C1245.19 646.157 1253.86 644.48 1261.68 641.127C1270.07 637.214 1277.33 631.066 1283.48 622.683V459.207C1279.57 467.591 1273.98 475.136 1266.71 481.842C1259.45 488.549 1251.34 495.256 1242.4 501.962C1233.46 508.11 1224.8 515.096 1216.41 522.921C1208.59 530.186 1201.88 539.129 1196.29 549.748C1191.26 560.367 1188.75 573.501 1188.75 589.15C1188.75 607.034 1192.66 621.006 1200.48 631.066C1208.87 641.126 1220.6 646.157 1235.69 646.157Z" fill="#FFFFFA"/>
<path d="M841.071 716.577V167.465C841.071 141.197 836.041 122.474 825.981 111.297C816.48 100.119 799.993 94.2505 776.519 93.6916V60.9964C789.933 61.5552 802.228 62.1141 813.406 62.673C824.584 63.2319 836.879 63.5114 850.293 63.5114C876.561 63.5114 901.711 62.673 925.743 60.9964C950.335 58.7608 972.411 55.6869 991.972 51.7747V600.886C991.972 626.595 996.723 645.318 1006.22 657.055C1016.28 668.233 1033.33 674.101 1057.36 674.66V707.355C1043.95 706.237 1031.65 705.678 1020.48 705.678C1009.3 705.119 996.723 704.84 982.75 704.84C956.482 704.84 931.332 705.678 907.3 707.355C883.267 709.591 861.191 712.664 841.071 716.577ZM722.865 719.092C687.096 719.092 655.798 710.149 628.972 692.265C602.704 673.821 582.304 647.833 567.773 614.299C553.801 580.207 546.814 539.967 546.814 493.579C546.814 443.837 554.639 401.92 570.288 367.828C585.937 333.177 608.572 306.629 638.193 288.186C668.374 269.743 704.422 260.521 746.339 260.521C772.048 260.521 794.683 264.154 814.244 271.419C833.806 278.126 849.175 287.907 860.353 300.761L854.484 330.941C848.337 323.117 839.953 316.969 829.334 312.498C818.715 308.027 807.258 305.791 794.963 305.791C764.223 305.791 741.309 320.602 726.219 350.223C711.129 379.844 703.584 425.953 703.584 488.549C703.584 546.115 709.732 589.429 722.027 618.491C734.323 647.554 753.604 662.085 779.872 662.085C793.286 662.085 805.861 658.172 817.598 650.348C829.334 641.965 838.836 630.228 846.101 615.138L849.454 645.318C838.277 668.792 822.069 686.955 800.831 699.81C779.593 712.664 753.604 719.092 722.865 719.092Z" fill="#FFFFFA"/>
<path d="M0 707.354V674.659C23.4735 673.541 40.7991 671.306 51.977 667.953C63.1548 664.599 70.4204 657.893 73.7738 647.832C77.686 637.772 79.6421 622.682 79.6421 602.562V218.603C79.6421 198.483 77.686 183.673 73.7738 174.171C70.4204 164.111 62.8754 157.125 51.1386 153.213C39.9608 149.301 22.9146 147.065 0 146.506V113.811C30.7391 114.37 70.6999 114.929 119.882 115.488C169.624 116.047 227.469 116.326 293.418 116.326C322.481 116.326 349.028 116.326 373.06 116.326C397.093 115.767 418.89 115.488 438.451 115.488C458.012 114.929 475.617 114.37 491.266 113.811C491.825 148.462 493.222 182.555 495.458 216.088C497.693 249.063 501.047 282.038 505.518 315.012H471.984C463.601 277.566 452.423 246.548 438.451 221.957C424.479 197.365 407.432 179.201 387.312 167.465C367.192 155.169 343.998 149.021 317.73 149.021H249.825V619.329C249.825 634.419 250.943 645.876 253.178 653.701C255.414 660.966 260.164 665.996 267.43 668.791C274.695 671.026 285.035 672.144 298.448 672.144H307.67C335.615 672.144 361.883 664.599 386.474 649.509C411.065 634.419 433.421 612.063 453.541 582.442C474.22 552.262 492.104 515.654 507.195 472.62H541.566C537.654 517.89 534.58 559.807 532.345 598.37C530.668 636.375 530.389 672.703 531.506 707.354C502.444 706.237 468.072 705.678 428.391 705.678C388.709 705.119 341.204 704.839 285.873 704.839C221.601 704.839 165.153 705.119 116.529 705.678C68.4643 705.678 29.6213 706.237 0 707.354ZM222.998 424.834V392.978H379.767V424.834H222.998ZM382.282 535.495C379.488 511.463 373.619 491.343 364.677 475.135C355.735 458.368 343.998 445.793 329.467 437.41C315.495 429.026 298.448 424.834 278.328 424.834V392.978C304.596 392.978 326.672 383.197 344.557 363.636C363 343.516 374.737 316.409 379.767 282.317H413.301C411.065 314.733 409.947 340.162 409.947 358.606C409.947 376.49 409.947 393.257 409.947 408.906C409.947 420.084 410.227 431.541 410.786 443.278C411.345 454.456 411.903 467.59 412.462 482.68C413.58 497.211 414.698 514.816 415.816 535.495H382.282Z" fill="#FFFFFA"/>
<path d="M2548.8 619.1V588.382C2571.91 587.856 2587.92 583.656 2596.85 575.779C2605.77 567.902 2610.24 553.199 2610.24 531.67V310.338C2610.24 287.233 2605.77 270.167 2596.85 259.14C2588.45 247.588 2572.43 241.549 2548.8 241.024V210.305C2559.83 210.83 2570.59 211.355 2581.09 211.881C2592.12 212.406 2602.89 212.668 2613.39 212.668C2639.64 212.668 2664.32 211.881 2687.43 210.305C2710.53 208.205 2732.06 205.317 2752.02 201.641V531.67C2752.02 553.725 2756.48 568.69 2765.41 576.567C2774.86 583.918 2790.61 587.856 2812.67 588.382V619.1C2804.26 618.575 2793.24 618.313 2779.58 618.313C2765.93 617.788 2750.7 617.262 2733.9 616.737C2717.62 616.212 2700.82 615.95 2683.49 615.95C2658.81 615.95 2633.34 616.475 2607.09 617.525C2581.36 618.05 2561.93 618.575 2548.8 619.1ZM2677.19 141.779C2657.23 141.779 2639.12 136.003 2622.84 124.45C2606.56 112.373 2598.42 94.5193 2598.42 70.8895C2598.42 47.2598 2606.56 29.6687 2622.84 18.1164C2639.12 6.03895 2657.23 0.000244141 2677.19 0.000244141C2697.14 0.000244141 2715.26 6.03895 2731.54 18.1164C2747.82 29.6687 2755.95 47.2598 2755.95 70.8895C2755.95 94.5193 2747.55 112.373 2730.75 124.45C2714.47 136.003 2696.62 141.779 2677.19 141.779Z" fill="#FFFFFA"/>
<path d="M2213.12 630.127C2179.51 630.127 2152.73 621.463 2132.77 604.134C2113.35 586.281 2103.63 562.126 2103.63 531.67C2103.63 508.04 2108.88 488.874 2119.38 474.171C2130.41 458.942 2144.33 446.603 2161.13 437.151C2178.46 427.699 2196.84 419.822 2216.27 413.521C2235.7 406.694 2253.81 400.393 2270.62 394.617C2287.94 388.316 2302.12 380.964 2313.15 372.563C2324.18 364.161 2329.69 353.396 2329.69 340.269V302.461C2329.69 279.356 2324.18 261.765 2313.15 249.688C2302.65 237.61 2287.42 231.572 2267.46 231.572C2252.76 231.572 2240.95 233.935 2232.02 238.661C2223.09 242.861 2218.63 249.163 2218.63 257.564C2218.63 264.916 2220.99 272.005 2225.72 278.831C2230.44 285.658 2235.17 293.009 2239.9 300.886C2244.62 308.237 2246.99 316.639 2246.99 326.091C2246.99 339.218 2241.21 349.72 2229.66 357.597C2218.63 365.474 2204.19 369.412 2186.34 369.412C2166.38 369.412 2150.37 363.898 2138.29 352.871C2126.74 341.844 2120.96 326.616 2120.96 307.187C2120.96 285.132 2128.57 266.229 2143.8 250.475C2159.56 234.197 2181.61 221.595 2209.97 212.668C2238.32 203.741 2271.4 199.278 2309.21 199.278C2348.07 199.278 2379.31 204.266 2402.94 214.243C2426.57 223.695 2443.9 239.711 2454.93 262.29C2465.95 284.345 2471.47 314.801 2471.47 353.659V552.149C2471.47 563.701 2473.04 571.84 2476.19 576.566C2479.34 581.292 2484.6 583.655 2491.95 583.655C2497.2 583.655 2502.45 582.605 2507.7 580.505C2512.95 578.404 2518.99 575.516 2525.82 571.84L2536.84 597.045C2523.19 608.073 2506.39 616.212 2486.43 621.463C2467 627.239 2445.21 630.127 2421.06 630.127C2362.77 630.127 2332.58 610.173 2330.48 570.265C2316.3 590.219 2299.5 605.185 2280.07 615.162C2260.64 625.139 2238.32 630.127 2213.12 630.127ZM2284.79 561.601C2293.72 561.601 2301.86 560.025 2309.21 556.875C2317.09 553.199 2323.91 547.423 2329.69 539.546V385.953C2326.01 393.829 2320.76 400.918 2313.94 407.22C2307.11 413.521 2299.5 419.822 2291.09 426.123C2282.69 431.9 2274.55 438.463 2266.68 445.815C2259.33 452.641 2253.02 461.043 2247.77 471.02C2243.05 480.997 2240.68 493.337 2240.68 508.04C2240.68 524.843 2244.36 537.971 2251.71 547.423C2259.59 556.875 2270.61 561.601 2284.79 561.601Z" fill="#FFFFFA"/>
<path d="M1592.22 770.866C1571.74 770.866 1555.46 765.353 1543.38 754.325C1531.31 743.823 1525.27 729.645 1525.27 711.792C1525.27 692.888 1531.83 676.61 1544.96 662.957C1558.61 649.829 1577.51 639.59 1601.67 632.238C1625.82 624.887 1653.92 621.211 1685.95 621.211C1711.68 621.211 1737.67 623.311 1763.93 627.512C1790.18 631.713 1816.44 636.439 1842.69 641.69C1868.95 647.466 1895.2 652.455 1921.46 656.656C1948.24 660.856 1974.76 662.957 2001.01 662.957C2037.77 662.957 2066.91 657.968 2088.44 647.991C2110.5 638.539 2129.4 622.261 2145.15 599.156L2169.57 612.547C2152.77 665.582 2129.4 705.228 2099.47 731.483C2070.06 757.739 2033.57 770.866 1989.99 770.866C1963.2 770.866 1938.26 766.928 1915.16 759.051C1892.58 751.175 1871.31 741.198 1851.36 729.12C1831.4 717.043 1811.97 704.965 1793.07 692.888C1774.69 680.81 1756.31 670.833 1737.93 662.957C1719.56 655.08 1700.65 651.142 1681.22 651.142C1663.89 651.142 1650.77 652.98 1641.84 656.656C1633.44 660.856 1629.24 666.37 1629.24 673.196C1629.24 678.448 1631.08 683.699 1634.75 688.95C1638.43 694.726 1642.1 700.765 1645.78 707.066C1649.45 713.367 1651.29 720.193 1651.29 727.545C1651.29 740.148 1645.52 750.387 1633.96 758.264C1622.94 766.665 1609.02 770.866 1592.22 770.866ZM1706.43 630.663L1663.89 625.149C1682.8 621.474 1699.6 616.748 1714.3 610.971C1729.01 605.72 1743.45 599.944 1757.63 593.643C1771.8 587.342 1787.03 581.565 1803.31 576.314C1819.59 570.538 1838.49 566.337 1860.02 563.712L1860.81 584.979C1839.8 588.654 1821.43 593.118 1805.67 598.369C1789.92 603.62 1774.43 608.871 1759.2 614.122C1744.5 619.373 1726.91 624.887 1706.43 630.663ZM1785.19 593.643C1722.71 593.643 1668.1 581.303 1621.36 556.623C1574.63 531.943 1538.13 497.811 1511.88 454.227C1486.15 410.643 1473.28 360.496 1473.28 303.784C1473.28 247.073 1486.15 196.925 1511.88 153.341C1538.13 109.758 1574.63 75.6257 1621.36 50.9457C1668.62 26.2658 1723.23 13.9258 1785.19 13.9258C1847.16 13.9258 1901.5 26.2658 1948.24 50.9457C1994.97 75.6257 2031.21 109.758 2056.94 153.341C2083.19 196.925 2096.32 247.073 2096.32 303.784C2096.32 360.496 2083.19 410.643 2056.94 454.227C2031.21 497.811 1994.97 531.943 1948.24 556.623C1901.5 581.303 1847.16 593.643 1785.19 593.643ZM1785.19 564.499C1812.5 564.499 1837.18 553.997 1859.23 532.993C1881.29 511.464 1898.62 481.27 1911.22 442.412C1924.35 403.029 1930.91 356.82 1930.91 303.784C1930.91 250.223 1924.35 204.014 1911.22 165.156C1898.09 126.299 1880.24 96.3674 1857.66 75.3632C1835.6 53.8338 1811.19 43.0692 1784.41 43.0692C1757.63 43.0692 1733.21 53.8338 1711.15 75.3632C1689.1 96.3674 1671.51 126.561 1658.38 165.944C1645.25 204.802 1638.69 250.749 1638.69 303.784C1638.69 356.82 1645.25 403.029 1658.38 442.412C1672.03 481.27 1689.89 511.464 1711.94 532.993C1734 553.997 1758.41 564.499 1785.19 564.499Z" fill="#FFFFFA"/>
</svg>
