<svg width="5716" height="3153" viewBox="0 0 5716 3153" fill="none" xmlns="http://www.w3.org/2000/svg">
<g filter="url(#filter0_f_2631_4)">
<circle cx="1576.33" cy="1576.33" r="550.24" fill="#FF312E"/>
</g>
<path d="M3096.12 2064.83C3039.46 2064.83 2994.31 2050.22 2960.66 2021C2927.91 1990.9 2911.53 1950.17 2911.53 1898.82C2911.53 1858.98 2920.38 1826.67 2938.09 1801.88C2956.68 1776.2 2980.14 1755.4 3008.47 1739.46C3037.69 1723.52 3068.68 1710.24 3101.43 1699.62C3134.19 1688.11 3164.74 1677.48 3193.07 1667.75C3222.29 1657.12 3246.19 1644.73 3264.78 1630.56C3283.37 1616.4 3292.67 1598.25 3292.67 1576.11V1512.37C3292.67 1473.41 3283.37 1443.75 3264.78 1423.39C3247.07 1403.03 3221.4 1392.84 3187.76 1392.84C3162.97 1392.84 3143.05 1396.83 3128 1404.8C3112.94 1411.88 3105.42 1422.5 3105.42 1436.67C3105.42 1449.06 3109.4 1461.02 3117.37 1472.53C3125.34 1484.04 3133.31 1496.43 3141.28 1509.71C3149.24 1522.11 3153.23 1536.27 3153.23 1552.21C3153.23 1574.34 3143.49 1592.05 3124.01 1605.33C3105.42 1618.61 3081.07 1625.25 3050.97 1625.25C3017.33 1625.25 2990.32 1615.95 2969.96 1597.36C2950.48 1578.77 2940.74 1553.09 2940.74 1520.33C2940.74 1483.15 2953.58 1451.28 2979.26 1424.72C3005.82 1397.27 3043 1376.02 3090.81 1360.97C3138.62 1345.92 3194.4 1338.39 3258.14 1338.39C3323.66 1338.39 3376.34 1346.81 3416.18 1363.63C3456.02 1379.56 3485.24 1406.57 3503.83 1444.64C3522.42 1481.82 3531.72 1533.17 3531.72 1598.69V1933.35C3531.72 1952.83 3534.37 1966.55 3539.68 1974.52C3545 1982.49 3553.85 1986.47 3566.24 1986.47C3575.1 1986.47 3583.95 1984.7 3592.81 1981.16C3601.66 1977.62 3611.84 1972.75 3623.35 1966.55L3641.94 2009.05C3618.92 2027.64 3590.59 2041.36 3556.95 2050.22C3524.19 2059.96 3487.45 2064.83 3446.72 2064.83C3348.45 2064.83 3297.54 2031.18 3294 1963.9C3270.09 1997.54 3241.76 2022.77 3209 2039.59C3176.25 2056.42 3138.62 2064.83 3096.12 2064.83ZM3216.97 1949.29C3232.02 1949.29 3245.75 1946.63 3258.14 1941.32C3271.42 1935.12 3282.93 1925.38 3292.67 1912.1V1653.14C3286.47 1666.42 3277.62 1678.37 3266.11 1688.99C3254.6 1699.62 3241.76 1710.24 3227.6 1720.87C3213.43 1730.61 3199.71 1741.67 3186.43 1754.07C3174.03 1765.58 3163.41 1779.74 3154.56 1796.56C3146.59 1813.39 3142.6 1834.19 3142.6 1858.98C3142.6 1887.31 3148.8 1909.45 3161.2 1925.38C3174.48 1941.32 3193.07 1949.29 3216.97 1949.29Z" fill="#FFFFFA"/>
<path d="M2591.84 2060.84V1190.98C2591.84 1149.37 2583.87 1119.71 2567.94 1102C2552.89 1084.3 2526.77 1075 2489.58 1074.12V1022.32C2510.83 1023.21 2530.31 1024.09 2548.02 1024.98C2565.73 1025.86 2585.2 1026.31 2606.45 1026.31C2648.06 1026.31 2687.9 1024.98 2725.97 1022.32C2764.93 1018.78 2799.9 1013.91 2830.89 1007.71V1877.57C2830.89 1918.3 2838.41 1947.96 2853.46 1966.55C2869.4 1984.26 2896.4 1993.56 2934.47 1994.44V2046.23C2913.23 2044.46 2893.75 2043.58 2876.04 2043.58C2858.33 2042.69 2838.41 2042.25 2816.28 2042.25C2774.67 2042.25 2734.83 2043.58 2696.76 2046.23C2658.69 2049.78 2623.72 2054.64 2591.84 2060.84ZM2404.59 2064.83C2347.93 2064.83 2298.35 2050.66 2255.85 2022.33C2214.24 1993.11 2181.92 1951.94 2158.91 1898.82C2136.77 1844.82 2125.7 1781.07 2125.7 1707.59C2125.7 1628.79 2138.1 1562.39 2162.89 1508.38C2187.68 1453.49 2223.54 1411.44 2270.46 1382.22C2318.27 1353 2375.37 1338.39 2441.78 1338.39C2482.5 1338.39 2518.36 1344.15 2549.35 1355.66C2580.33 1366.28 2604.68 1381.78 2622.39 1402.14L2613.09 1449.95C2603.35 1437.55 2590.07 1427.81 2573.25 1420.73C2556.43 1413.65 2538.28 1410.11 2518.8 1410.11C2470.11 1410.11 2433.81 1433.57 2409.9 1480.49C2386 1527.42 2374.05 1600.46 2374.05 1699.62C2374.05 1790.81 2383.79 1859.42 2403.26 1905.46C2422.74 1951.5 2453.29 1974.52 2494.9 1974.52C2516.15 1974.52 2536.07 1968.32 2554.66 1955.93C2573.25 1942.65 2588.3 1924.06 2599.81 1900.15L2605.12 1947.96C2587.42 1985.14 2561.74 2013.92 2528.1 2034.28C2494.45 2054.64 2453.29 2064.83 2404.59 2064.83Z" fill="#FFFFFA"/>
<path d="M1259.48 2046.23V1994.44C1296.67 1992.67 1324.11 1989.13 1341.82 1983.82C1359.53 1978.5 1371.04 1967.88 1376.35 1951.94C1382.55 1936.01 1385.65 1912.1 1385.65 1880.23V1271.99C1385.65 1240.12 1382.55 1216.66 1376.35 1201.61C1371.04 1185.67 1359.09 1174.6 1340.49 1168.41C1322.79 1162.21 1295.78 1158.67 1259.48 1157.78V1105.99C1308.18 1106.87 1371.48 1107.76 1449.39 1108.64C1528.19 1109.53 1619.82 1109.97 1724.29 1109.97C1770.33 1109.97 1812.39 1109.97 1850.46 1109.97C1888.53 1109.09 1923.06 1108.64 1954.04 1108.64C1985.03 1107.76 2012.92 1106.87 2037.71 1105.99C2038.59 1160.88 2040.81 1214.89 2044.35 1268.01C2047.89 1320.24 2053.2 1372.48 2060.29 1424.72H2007.16C1993.88 1365.4 1976.18 1316.26 1954.04 1277.3C1931.91 1238.35 1904.91 1209.57 1873.03 1190.98C1841.16 1171.5 1804.42 1161.77 1762.81 1161.77H1655.24V1906.79C1655.24 1930.69 1657.01 1948.84 1660.55 1961.24C1664.09 1972.75 1671.62 1980.72 1683.13 1985.14C1694.64 1988.69 1711.01 1990.46 1732.26 1990.46H1746.87C1791.14 1990.46 1832.75 1978.5 1871.71 1954.6C1910.66 1930.69 1946.08 1895.28 1977.95 1848.36C2010.71 1800.55 2039.04 1742.56 2062.94 1674.38H2117.39C2111.19 1746.1 2106.32 1812.5 2102.78 1873.59C2100.13 1933.79 2099.68 1991.34 2101.45 2046.23C2055.42 2044.46 2000.97 2043.58 1938.11 2043.58C1875.25 2042.69 1799.99 2042.25 1712.34 2042.25C1610.53 2042.25 1521.11 2042.69 1444.08 2043.58C1367.94 2043.58 1306.41 2044.46 1259.48 2046.23ZM1612.74 1598.69V1548.22H1861.08V1598.69H1612.74ZM1865.07 1773.99C1860.64 1735.92 1851.34 1704.04 1837.18 1678.37C1823.01 1651.81 1804.42 1631.89 1781.4 1618.61C1759.27 1605.33 1732.26 1598.69 1700.39 1598.69V1548.22C1742 1548.22 1776.97 1532.73 1805.3 1501.74C1834.52 1469.87 1853.11 1426.93 1861.08 1372.92H1914.2C1910.66 1424.27 1908.89 1464.56 1908.89 1493.77C1908.89 1522.1 1908.89 1548.66 1908.89 1573.45C1908.89 1591.16 1909.33 1609.31 1910.22 1627.9C1911.1 1645.61 1911.99 1666.42 1912.87 1690.32C1914.65 1713.34 1916.42 1741.23 1918.19 1773.99H1865.07Z" fill="#FFFFFA"/>
<path d="M5297.09 1906.43V1857.77C5333.69 1856.93 5359.07 1850.28 5373.21 1837.8C5387.35 1825.32 5394.42 1802.03 5394.42 1767.93V1417.31C5394.42 1380.71 5387.35 1353.68 5373.21 1336.21C5359.9 1317.91 5334.53 1308.34 5297.09 1307.51V1258.85C5314.56 1259.68 5331.61 1260.51 5348.25 1261.34C5365.72 1262.17 5382.77 1262.59 5399.41 1262.59C5441 1262.59 5480.1 1261.34 5516.7 1258.85C5553.3 1255.52 5587.4 1250.95 5619.01 1245.12V1767.93C5619.01 1802.87 5626.08 1826.57 5640.22 1839.05C5655.2 1850.7 5680.15 1856.93 5715.09 1857.77V1906.43C5701.78 1905.6 5684.31 1905.18 5662.68 1905.18C5641.06 1904.35 5616.93 1903.52 5590.31 1902.69C5564.53 1901.85 5537.91 1901.44 5510.46 1901.44C5471.36 1901.44 5431.02 1902.27 5389.43 1903.93C5348.67 1904.76 5317.89 1905.6 5297.09 1906.43ZM5500.48 1150.29C5468.87 1150.29 5440.17 1141.14 5414.38 1122.84C5388.6 1103.71 5375.7 1075.43 5375.7 1038C5375.7 1000.56 5388.6 972.697 5414.38 954.397C5440.17 935.265 5468.87 925.699 5500.48 925.699C5532.09 925.699 5560.78 935.265 5586.57 954.397C5612.36 972.697 5625.25 1000.56 5625.25 1038C5625.25 1075.43 5611.94 1103.71 5585.32 1122.84C5559.54 1141.14 5531.25 1150.29 5500.48 1150.29Z" fill="#FFFFFA"/>
<path d="M4765.33 1923.9C4712.09 1923.9 4669.67 1910.17 4638.06 1882.72C4607.28 1854.44 4591.89 1816.17 4591.89 1767.93C4591.89 1730.5 4600.21 1700.13 4616.85 1676.84C4634.32 1652.72 4656.36 1633.17 4682.98 1618.2C4710.43 1603.23 4739.54 1590.75 4770.32 1580.77C4801.1 1569.95 4829.8 1559.97 4856.41 1550.82C4883.86 1540.84 4906.32 1529.19 4923.79 1515.88C4941.26 1502.57 4950 1485.52 4950 1464.73V1404.83C4950 1368.23 4941.26 1340.37 4923.79 1321.23C4907.16 1302.1 4883.03 1292.54 4851.42 1292.54C4828.13 1292.54 4809.42 1296.28 4795.27 1303.77C4781.13 1310.42 4774.06 1320.4 4774.06 1333.71C4774.06 1345.36 4777.81 1356.59 4785.29 1367.4C4792.78 1378.22 4800.27 1389.86 4807.75 1402.34C4815.24 1413.98 4818.98 1427.29 4818.98 1442.27C4818.98 1463.06 4809.83 1479.7 4791.53 1492.18C4774.06 1504.65 4751.19 1510.89 4722.91 1510.89C4691.3 1510.89 4665.92 1502.16 4646.79 1484.69C4628.49 1467.22 4619.34 1443.1 4619.34 1412.32C4619.34 1377.38 4631.4 1347.44 4655.53 1322.48C4680.48 1296.7 4715.42 1276.73 4760.34 1262.59C4805.26 1248.45 4857.66 1241.38 4917.55 1241.38C4979.11 1241.38 5028.6 1249.28 5066.04 1265.09C5103.47 1280.06 5130.92 1305.43 5148.39 1341.2C5165.86 1376.14 5174.59 1424.38 5174.59 1485.94V1800.37C5174.59 1818.67 5177.09 1831.56 5182.08 1839.05C5187.07 1846.54 5195.39 1850.28 5207.03 1850.28C5215.35 1850.28 5223.67 1848.62 5231.99 1845.29C5240.3 1841.96 5249.87 1837.39 5260.68 1831.56L5278.15 1871.49C5256.53 1888.96 5229.91 1901.85 5198.3 1910.17C5167.52 1919.32 5133 1923.9 5094.73 1923.9C5002.4 1923.9 4954.57 1892.29 4951.24 1829.07C4928.78 1860.68 4902.16 1884.38 4871.39 1900.19C4840.61 1915.99 4805.26 1923.9 4765.33 1923.9ZM4878.87 1815.34C4893.01 1815.34 4905.91 1812.85 4917.55 1807.86C4930.03 1802.03 4940.85 1792.88 4950 1780.41V1537.1C4944.17 1549.57 4935.85 1560.8 4925.04 1570.78C4914.23 1580.77 4902.16 1590.75 4888.86 1600.73C4875.55 1609.88 4862.65 1620.28 4850.18 1631.92C4838.53 1642.74 4828.55 1656.05 4820.23 1671.85C4812.74 1687.66 4809 1707.2 4809 1730.5C4809 1757.11 4814.82 1777.91 4826.47 1792.88C4838.95 1807.86 4856.41 1815.34 4878.87 1815.34Z" fill="#FFFFFA"/>
<path d="M3781.75 2146.84C3749.31 2146.84 3723.52 2138.11 3704.39 2120.64C3685.26 2104 3675.69 2081.55 3675.69 2053.26C3675.69 2023.32 3686.09 1997.53 3706.88 1975.9C3728.51 1955.11 3758.46 1938.89 3796.72 1927.24C3834.99 1915.59 3879.49 1909.77 3930.23 1909.77C3970.99 1909.77 4012.17 1913.1 4053.76 1919.75C4095.35 1926.41 4136.94 1933.89 4178.53 1942.21C4220.13 1951.36 4261.72 1959.27 4303.31 1965.92C4345.73 1972.58 4387.74 1975.9 4429.33 1975.9C4487.56 1975.9 4533.73 1968 4567.83 1952.2C4602.77 1937.22 4632.71 1911.44 4657.67 1874.83L4696.35 1896.05C4669.73 1980.06 4632.71 2042.86 4585.3 2084.46C4538.72 2126.05 4480.9 2146.84 4411.86 2146.84C4369.44 2146.84 4329.93 2140.61 4293.33 2128.13C4257.56 2115.65 4223.87 2099.85 4192.26 2080.71C4160.65 2061.58 4129.87 2042.45 4099.93 2023.32C4070.81 2004.18 4041.7 1988.38 4012.58 1975.9C3983.47 1963.42 3953.52 1957.19 3922.75 1957.19C3895.29 1957.19 3874.5 1960.1 3860.36 1965.92C3847.05 1972.58 3840.39 1981.31 3840.39 1992.12C3840.39 2000.44 3843.31 2008.76 3849.13 2017.08C3854.95 2026.23 3860.77 2035.79 3866.6 2045.78C3872.42 2055.76 3875.33 2066.57 3875.33 2078.22C3875.33 2098.18 3866.18 2114.4 3847.88 2126.88C3830.41 2140.19 3808.37 2146.84 3781.75 2146.84ZM3962.67 1924.74L3895.29 1916.01C3925.24 1910.19 3951.86 1902.7 3975.15 1893.55C3998.44 1885.23 4021.32 1876.08 4043.78 1866.1C4066.24 1856.12 4090.36 1846.97 4116.15 1838.65C4141.93 1829.5 4171.88 1822.85 4205.98 1818.69L4207.23 1852.38C4173.96 1858.2 4144.84 1865.27 4119.89 1873.59C4094.93 1881.91 4070.4 1890.22 4046.27 1898.54C4022.98 1906.86 3995.11 1915.59 3962.67 1924.74ZM4087.45 1866.1C3988.46 1866.1 3901.95 1846.55 3827.92 1807.46C3753.88 1768.36 3696.07 1714.29 3654.48 1645.25C3613.72 1576.21 3593.34 1496.77 3593.34 1406.93C3593.34 1317.09 3613.72 1237.65 3654.48 1168.61C3696.07 1099.57 3753.88 1045.5 3827.92 1006.4C3902.78 967.306 3989.29 947.758 4087.45 947.758C4185.6 947.758 4271.7 967.306 4345.73 1006.4C4419.76 1045.5 4477.16 1099.57 4517.92 1168.61C4559.51 1237.65 4580.31 1317.09 4580.31 1406.93C4580.31 1496.77 4559.51 1576.21 4517.92 1645.25C4477.16 1714.29 4419.76 1768.36 4345.73 1807.46C4271.7 1846.55 4185.6 1866.1 4087.45 1866.1ZM4087.45 1819.93C4130.7 1819.93 4169.8 1803.3 4204.74 1770.02C4239.67 1735.92 4267.12 1688.09 4287.09 1626.53C4307.88 1564.15 4318.28 1490.94 4318.28 1406.93C4318.28 1322.08 4307.88 1248.88 4287.09 1187.33C4266.29 1125.77 4238.01 1078.36 4202.24 1045.08C4167.3 1010.98 4128.62 993.925 4086.2 993.925C4043.78 993.925 4005.1 1010.98 3970.16 1045.08C3935.22 1078.36 3907.36 1126.19 3886.56 1188.57C3865.76 1250.13 3855.37 1322.91 3855.37 1406.93C3855.37 1490.94 3865.76 1564.15 3886.56 1626.53C3908.19 1688.09 3936.47 1735.92 3971.41 1770.02C4006.34 1803.3 4045.02 1819.93 4087.45 1819.93Z" fill="#FFFFFA"/>
<defs>
<filter id="filter0_f_2631_4" x="0" y="0" width="3352.66" height="3352.66" filterUnits="userSpaceOnUse" color-interpolation-filters="sRGB">
<feFlood flood-opacity="0" result="BackgroundImageFix"/>
<feBlend mode="normal" in="SourceGraphic" in2="BackgroundImageFix" result="shape"/>
<feGaussianBlur stdDeviation="513.045" result="effect1_foregroundBlur_2631_4"/>
</filter>
</defs>
</svg>
